<mxfile host="Electron" agent="Mozilla/5.0 (Windows NT 10.0; Win64; x64) AppleWebKit/537.36 (KHTML, like Gecko) draw.io/24.7.17 Chrome/128.0.6613.36 Electron/32.0.1 Safari/537.36" version="24.7.17">
  <diagram name="Page-1" id="HB3zh7IzjvU-UKdtlsyz">
    <mxGraphModel dx="2703" dy="1312" grid="0" gridSize="10" guides="1" tooltips="1" connect="1" arrows="1" fold="1" page="0" pageScale="1" pageWidth="1169" pageHeight="1654" math="0" shadow="0">
      <root>
        <mxCell id="0" />
        <mxCell id="1" parent="0" />
        <mxCell id="xL_jgTfwNhBm32-HtVtW-2" value="" style="rounded=1;whiteSpace=wrap;html=1;arcSize=2;fillColor=#009FDF;strokeColor=none;gradientColor=#283584;gradientDirection=west;shadow=1;" vertex="1" parent="1">
          <mxGeometry x="-3" y="359" width="1200" height="300" as="geometry" />
        </mxCell>
        <mxCell id="xL_jgTfwNhBm32-HtVtW-3" value="&lt;div style=&quot;text-align: center;&quot;&gt;&lt;span style=&quot;background-color: initial;&quot;&gt;terraform-aws-ec2&lt;/span&gt;&lt;/div&gt;" style="text;html=1;align=left;verticalAlign=middle;whiteSpace=wrap;rounded=0;fontColor=#FFFFFF;fontSize=84;fontFamily=Helvetica;fontStyle=1;spacingLeft=10;shadow=0;" vertex="1" parent="1">
          <mxGeometry y="470" width="785" height="90" as="geometry" />
        </mxCell>
        <mxCell id="xL_jgTfwNhBm32-HtVtW-4" value="TERRAFORM MODULE" style="text;html=1;align=left;verticalAlign=middle;whiteSpace=wrap;rounded=0;fontColor=#FFFFFF;fontSize=26;fontFamily=Helvetica;fontStyle=0;spacingLeft=10;" vertex="1" parent="1">
          <mxGeometry x="2" y="401.5" width="318" height="38" as="geometry" />
        </mxCell>
        <mxCell id="xL_jgTfwNhBm32-HtVtW-5" value="" style="shape=image;verticalLabelPosition=bottom;labelBackgroundColor=default;verticalAlign=top;aspect=fixed;imageAspect=0;image=data:image/svg+xml,PHN2ZyB4bWxucz0iaHR0cDovL3d3dy53My5vcmcvMjAwMC9zdmciIHhtbDpzcGFjZT0icHJlc2VydmUiIHZpZXdCb3g9IjAgMCAzNzYuNzk5OTkgMjk2LjUiIHZlcnNpb249IjEuMSIgaGVpZ2h0PSIyOTYuNSIgd2lkdGg9IjM3Ni43OTk5OSIgaWQ9IkxheWVyXzEiPiYjeGE7PHN0eWxlIHR5cGU9InRleHQvY3NzIiBpZD0ic3R5bGU5OTciPiYjeGE7CS5zdDB7ZmlsbDojMkE0Qzg3O30mI3hhOwkuc3Qxe2ZpbGw6IzJFNEU4ODt9JiN4YTsJLnN0MntmaWxsOiMxRjNENzA7fSYjeGE7CS5zdDN7ZmlsbDojMTk0Qzg4O30mI3hhOwkuc3Q0e2ZpbGw6IzM0NjhBMzt9JiN4YTsJLnN0NXtmaWxsOiM0QzhEQ0I7fSYjeGE7CS5zdDZ7ZmlsbDojMzQ5OEIzO30mI3hhOwkuc3Q3e2ZpbGw6IzBBQTQ5Njt9JiN4YTsJLnN0OHtmaWxsOiMwMEFBNzU7fSYjeGE7CS5zdDl7ZmlsbDojNEZCQTZBO30mI3hhOwkuc3QxMHtmaWxsOiM3RUM0NUY7fSYjeGE7CS5zdDExe2ZpbGw6IzRDNjA5Qjt9JiN4YTsJLnN0MTJ7ZmlsbDojNTQ2NjlGO30mI3hhOwkuc3QxM3tmaWxsOiM3NDZGQTc7fSYjeGE7CS5zdDE0e2ZpbGw6Izk5NTU4RTt9JiN4YTsJLnN0MTV7ZmlsbDojQUYzMzc5O30mI3hhOwkuc3QxNntmaWxsOiNCRTI2NkE7fSYjeGE7CS5zdDE3e2ZpbGw6I0Q0NTI1Qzt9JiN4YTsJLnN0MTh7ZmlsbDojRTA2NTRGO30mI3hhOwkuc3QxOXtmaWxsOiNGNTdGMkE7fSYjeGE7CS5zdDIwe2ZpbGw6I0Y4OTgyODt9JiN4YTsJLnN0MjF7ZmlsbDojRkVDMTI3O30mI3hhOwkuc3QyMntmaWxsOiNGRUQ2Mjc7fSYjeGE7CS5zdDIze2ZpbGw6IzM1MUE1NTt9JiN4YTs8L3N0eWxlPiYjeGE7PHBhdGggZD0ibTM0MS4xIDExNi40YzIuMSA4IDEwLjMgMTIuOCAxOC40IDEwLjYgOC0yLjEgMTIuOC0xMC4zIDEwLjYtMTguNC0yLjEtOC0xMC4zLTEyLjgtMTguNC0xMC42LTcuOSAyLjItMTIuNyAxMC40LTEwLjYgMTguNHoiIGNsYXNzPSJzdDAiIGlkPSJwYXRoOTk5Ii8+JiN4YTs8cGF0aCBkPSJtMzIwLjggMTMyLjRjNS40LTEuNSA4LjctNy4xIDcuMi0xMi41cy03LjEtOC43LTEyLjUtNy4yLTguNyA3LjEtNy4yIDEyLjVjMS40IDUuNCA3IDguNiAxMi41IDcuMnoiIGNsYXNzPSJzdDAiIGlkPSJwYXRoMTAwMSIvPiYjeGE7PHBhdGggZD0ibTI5MC44IDEzNy42YzQtMS4xIDYuNC01LjIgNS4zLTkuMnMtNS4yLTYuNC05LjItNS4zLTYuNCA1LjItNS4zIDkuMiA1LjIgNi40IDkuMiA1LjN6IiBjbGFzcz0ic3QwIiBpZD0icGF0aDEwMDMiLz4mI3hhOzxwYXRoIGQ9Im0yNjcuNSAxNDEuMWMyLjUtMC43IDQtMy4zIDMuNC01LjhzLTMuMy00LTUuOC0zLjRjLTIuNSAwLjctNCAzLjMtMy40IDUuOHMzLjIgNCA1LjggMy40eiIgY2xhc3M9InN0MSIgaWQ9InBhdGgxMDA1Ii8+JiN4YTs8cGF0aCBkPSJtMzMwIDg2YzMuOCA2LjUgMTIuMSA4LjggMTguNiA1czguOC0xMi4xIDUtMTguNi0xMi4xLTguOC0xOC42LTUtOC44IDEyLjEtNSAxOC42eiIgY2xhc3M9InN0MiIgaWQ9InBhdGgxMDA3Ii8+JiN4YTs8cGF0aCBkPSJtMjk5LjkgMTAzLjNjMi42IDQuNiA4LjQgNi4xIDEzIDMuNXM2LjEtOC40IDMuNS0xMy04LjQtNi4xLTEzLTMuNWMtNC41IDIuNi02LjEgOC40LTMuNSAxM3oiIGNsYXNzPSJzdDIiIGlkPSJwYXRoMTAwOSIvPiYjeGE7PHBhdGggZD0ibTI3OC41IDEwNy44Yy0zLjMgMS45LTQuNCA2LTIuNSA5LjNzNiA0LjQgOS4zIDIuNSA0LjQtNiAyLjUtOS4zYy0xLjgtMy4yLTYtNC4zLTkuMy0yLjV6IiBjbGFzcz0ic3QyIiBpZD0icGF0aDEwMTEiLz4mI3hhOzxwYXRoIGQ9Im0yNTkuNCAxMjEuNmMtMi4xIDEuMi0yLjkgMy45LTEuNyA2czMuOSAyLjkgNiAxLjcgMi45LTMuOSAxLjctNi0zLjktMi45LTYtMS43eiIgY2xhc3M9InN0MiIgaWQ9InBhdGgxMDEzIi8+JiN4YTs8cGF0aCBkPSJtMzI4LjUgNTkuM2M0LjgtNC44IDQuOC0xMi41IDAtMTcuM3MtMTIuNS00LjgtMTcuMyAwLTQuOCAxMi41IDAgMTcuM2M0LjcgNC44IDEyLjUgNC44IDE3LjMgMHoiIGNsYXNzPSJzdDMiIGlkPSJwYXRoMTAxNSIvPiYjeGE7PHBhdGggZD0ibTI5OC42IDcxLjhjLTMuNS0zLjUtOS4xLTMuNS0xMi41IDAtMy41IDMuNS0zLjUgOS4xIDAgMTIuNSAzLjUgMy41IDkuMSAzLjUgMTIuNSAwIDMuNS0zLjUgMy41LTkuMSAwLTEyLjV6IiBjbGFzcz0ic3QzIiBpZD0icGF0aDEwMTciLz4mI3hhOzxwYXRoIGQ9Im0yNjYuNiA5NS4xYy0yLjQgMi40LTIuNCA2LjMgMCA4LjdzNi4zIDIuNCA4LjcgMCAyLjQtNi4zIDAtOC42Yy0yLjQtMi41LTYuMy0yLjUtOC43LTAuMXoiIGNsYXNzPSJzdDMiIGlkPSJwYXRoMTAxOSIvPiYjeGE7PHBhdGggZD0ibTI1MS41IDExOC45YzEuNiAxLjYgNC4yIDEuNiA1LjggMHMxLjYtNC4yIDAtNS44LTQuMi0xLjYtNS44IDAtMS42IDQuMiAwIDUuOHoiIGNsYXNzPSJzdDMiIGlkPSJwYXRoMTAyMSIvPiYjeGE7PHBhdGggZD0ibTI4NS40IDM4LjdjNS41IDMuMiAxMi42IDEuMyAxNS44LTQuMnMxLjMtMTIuNi00LjItMTUuOC0xMi42LTEuMy0xNS44IDQuMmMtMy4zIDUuNS0xLjQgMTIuNiA0LjIgMTUuOC0wLjEgMCAwIDAgMCAweiIgY2xhc3M9InN0NCIgaWQ9InBhdGgxMDIzIi8+JiN4YTs8cGF0aCBkPSJtMjY0LjcgNTguMmMtMi4zIDMuOS0wLjkgOC45IDMgMTEuMnM4LjkgMC45IDExLjItMyAwLjktOC45LTMtMTEuMmMtNC0yLjMtOS0wLjktMTEuMiAzeiIgY2xhc3M9InN0NCIgaWQ9InBhdGgxMDI1Ii8+JiN4YTs8cGF0aCBkPSJtMjU5LjMgODMuOGMtMi42LTEuNS01LjktMC42LTcuNCAycy0wLjYgNS45IDIgNy40IDUuOSAwLjYgNy40LTIgMC42LTUuOS0yLTcuNHoiIGNsYXNzPSJzdDQiIGlkPSJwYXRoMTAyNyIvPiYjeGE7PHBhdGggZD0ibTI0Ni43IDEwNS42Yy0xLjgtMS00LjEtMC40LTUuMSAxLjRzLTAuNCA0LjEgMS40IDUuMSA0LjEgMC40IDUuMS0xLjQgMC40LTQuMS0xLjQtNS4xeiIgY2xhc3M9InN0NCIgaWQ9InBhdGgxMDI5Ii8+JiN4YTs8cGF0aCBkPSJtMjU1IDI1LjRjNS44IDEuNiAxMS44LTEuOSAxMy4zLTcuNyAxLjYtNS44LTEuOS0xMS44LTcuNy0xMy4zcy0xMS44IDEuOS0xMy4zIDcuN2MtMS42IDUuOCAxLjkgMTEuOCA3LjcgMTMuM3oiIGNsYXNzPSJzdDUiIGlkPSJwYXRoMTAzMSIvPiYjeGE7PHBhdGggZD0ibTI0NS44IDU5LjZjNCAxLjEgOC4xLTEuMyA5LjItNS4zcy0xLjMtOC4xLTUuMy05LjItOC4xIDEuMy05LjIgNS4zYy0xIDQgMS4zIDguMSA1LjMgOS4yeiIgY2xhc3M9InN0NSIgaWQ9InBhdGgxMDMzIi8+JiN4YTs8cGF0aCBkPSJtMjM4LjYgODYuNmMyLjcgMC43IDUuNS0wLjkgNi4yLTMuNnMtMC45LTUuNS0zLjYtNi4yLTUuNSAwLjktNi4yIDMuNmMtMC43IDIuNiAwLjkgNS40IDMuNiA2LjJ6IiBjbGFzcz0ic3Q1IiBpZD0icGF0aDEwMzUiLz4mI3hhOzxwYXRoIGQ9Im0yMzAuNiAxMDMuNGMtMC41IDEuOCAwLjYgMy43IDIuNCA0LjJzMy43LTAuNiA0LjItMi40LTAuNi0zLjctMi40LTQuMmMtMS45LTAuNS0zLjggMC42LTQuMiAyLjR6IiBjbGFzcz0ic3Q1IiBpZD0icGF0aDEwMzciLz4mI3hhOzxwYXRoIGQ9Im0yMjIgMjAuNGM1LjYgMCAxMC4yLTQuNiAxMC4yLTEwLjJzLTQuNi0xMC4yLTEwLjItMTAuMi0xMC4yIDQuNi0xMC4yIDEwLjJjMCA1LjcgNC42IDEwLjIgMTAuMiAxMC4yeiIgY2xhc3M9InN0NiIgaWQ9InBhdGgxMDM5Ii8+JiN4YTs8cGF0aCBkPSJtMjIyIDQyLjJjLTMuOCAwLTYuOCAzLTYuOCA2LjhzMyA2LjggNi44IDYuOCA2LjgtMyA2LjgtNi44YzAtMy43LTMtNi44LTYuOC02Ljh6IiBjbGFzcz0ic3Q2IiBpZD0icGF0aDEwNDEiLz4mI3hhOzxwYXRoIGQ9Im0yMjYuOCA3OS4zYzAtMi42LTIuMS00LjgtNC44LTQuOHMtNC44IDIuMS00LjggNC44IDIuMSA0LjggNC44IDQuOCA0LjgtMi4yIDQuOC00Ljh6IiBjbGFzcz0ic3Q2IiBpZD0icGF0aDEwNDMiLz4mI3hhOzxwYXRoIGQ9Im0yMjIgOTkuN2MtMS43IDAtMy4xIDEuNC0zLjEgMy4xczEuNCAzLjEgMy4xIDMuMSAzLjEtMS40IDMuMS0zLjEtMS40LTMuMS0zLjEtMy4xeiIgY2xhc3M9InN0NiIgaWQ9InBhdGgxMDQ1Ii8+JiN4YTs8cGF0aCBkPSJtMTg4LjcgMjQuMmM1LjEtMS40IDguMS02LjYgNi43LTExLjdzLTYuNi04LjEtMTEuNy02LjctOC4xIDYuNi02LjcgMTEuN2MxLjQgNSA2LjcgOCAxMS43IDYuN3oiIGNsYXNzPSJzdDciIGlkPSJwYXRoMTA0NyIvPiYjeGE7PHBhdGggZD0ibTE5MC40IDU0YzAuOSAzLjMgNC4yIDUuMiA3LjUgNC4zczUuMi00LjIgNC4zLTcuNS00LjItNS4yLTcuNS00LjNjLTMuMiAwLjktNS4yIDQuMy00LjMgNy41eiIgY2xhc3M9InN0NyIgaWQ9InBhdGgxMDQ5Ii8+JiN4YTs8cGF0aCBkPSJtMTk5LjkgODIuOWMwLjYgMi40IDMuMSAzLjggNS40IDMuMSAyLjQtMC42IDMuOC0zLjEgMy4xLTUuNC0wLjYtMi40LTMuMS0zLjgtNS40LTMuMS0yLjQgMC42LTMuNyAzLTMuMSA1LjR2MHoiIGNsYXNzPSJzdDciIGlkPSJwYXRoMTA1MSIvPiYjeGE7PHBhdGggZD0ibTIwNy42IDEwNS4xYzAuNCAxLjUgMS45IDIuMyAzLjMgMS45IDEuNS0wLjQgMi4zLTEuOSAxLjktMy4zLTAuNC0xLjUtMS45LTIuMy0zLjMtMS45cy0yLjMgMS44LTEuOSAzLjN6IiBjbGFzcz0ic3Q3IiBpZD0icGF0aDEwNTMiLz4mI3hhOzxwYXRoIGQ9Im0xNTcuNCAzNi41YzQuMi0yLjQgNS43LTcuOSAzLjMtMTIuMXMtNy45LTUuNy0xMi4xLTMuMy01LjcgNy45LTMuMyAxMi4xYzIuNSA0LjMgNy45IDUuNyAxMi4xIDMuM3oiIGNsYXNzPSJzdDgiIGlkPSJwYXRoMTA1NSIvPiYjeGE7PHBhdGggZD0ibTE3NS4xIDY3LjFjMi42LTEuNSAzLjUtNC44IDItNy40cy00LjgtMy41LTcuNC0yLTMuNSA0LjgtMiA3LjRjMS40IDIuNiA0LjggMy41IDcuNCAyeiIgY2xhc3M9InN0OCIgaWQ9InBhdGgxMDU3Ii8+JiN4YTs8cGF0aCBkPSJtMTg5LjUgOTIuMmMyLTEuMSAyLjYtMy42IDEuNS01LjZzLTMuNi0yLjYtNS42LTEuNS0yLjYgMy42LTEuNSA1LjZjMS4yIDEuOSAzLjcgMi42IDUuNiAxLjV6IiBjbGFzcz0ic3Q4IiBpZD0icGF0aDEwNTkiLz4mI3hhOzxwYXRoIGQ9Im0yMDEuMyAxMDcuOGMtMC43LTEuMS0yLjEtMS41LTMuMy0wLjktMS4xIDAuNy0xLjUgMi4xLTAuOSAzLjMgMC43IDEuMSAyLjEgMS41IDMuMiAwLjkgMS4zLTAuNyAxLjctMi4yIDEtMy4zeiIgY2xhc3M9InN0OCIgaWQ9InBhdGgxMDYxIi8+JiN4YTs8cGF0aCBkPSJtMTMwLjEgNTYuNmMzLjItMy4yIDMuMi04LjQgMC0xMS42cy04LjQtMy4yLTExLjYgMC0zLjIgOC40IDAgMTEuNmMzLjMgMy4yIDguNSAzLjIgMTEuNiAweiIgY2xhc3M9InN0OSIgaWQ9InBhdGgxMDYzIi8+JiN4YTs8cGF0aCBkPSJtMTU1LjIgNzQuOWMtMS45LTEuOS00LjktMS45LTYuNyAwLTEuOSAxLjktMS45IDQuOSAwIDYuNyAxLjkgMS45IDQuOSAxLjkgNi43IDBzMS44LTQuOSAwLTYuN3oiIGNsYXNzPSJzdDkiIGlkPSJwYXRoMTA2NSIvPiYjeGE7PHBhdGggZD0ibTE3NS45IDk3Yy0xLjUtMS41LTMuOC0xLjUtNS4zIDBzLTEuNSAzLjggMCA1LjMgMy44IDEuNSA1LjMgMGMxLjQtMS41IDEuNC0zLjggMC01LjN6IiBjbGFzcz0ic3Q5IiBpZD0icGF0aDEwNjciLz4mI3hhOzxwYXRoIGQ9Im0xOTEuMyAxMTQuOGMtMC44LTAuOC0yLjEtMC43LTIuOCAwLjEtMC44IDAuOC0wLjcgMi4xIDAuMSAyLjhzMiAwLjcgMi44IDBjMC43LTAuOCAwLjctMi4xLTAuMS0yLjl6IiBjbGFzcz0ic3Q5IiBpZD0icGF0aDEwNjkiLz4mI3hhOzxwYXRoIGQ9Im05OC41IDg1LjdjMy42IDIuMSA4LjIgMC44IDEwLjItMi43IDIuMS0zLjYgMC44LTguMi0yLjctMTAuMi0zLjYtMi4xLTguMi0wLjgtMTAuMiAyLjctMi4xIDMuNS0wLjkgOC4xIDIuNyAxMC4yeiIgY2xhc3M9InN0MTAiIGlkPSJwYXRoMTA3MSIvPiYjeGE7PHBhdGggZD0ibTEzOC4xIDk1LjNjLTItMS4xLTQuNC0wLjQtNS42IDEuNS0xLjEgMi0wLjQgNC40IDEuNSA1LjYgMiAxLjEgNC40IDAuNSA1LjYtMS41IDEuMS0yIDAuNC00LjUtMS41LTUuNnoiIGNsYXNzPSJzdDEwIiBpZD0icGF0aDEwNzMiLz4mI3hhOzxwYXRoIGQ9Im0xNjQgMTExYy0xLjYtMC45LTMuNy0wLjQtNC42IDEuMy0wLjkgMS42LTAuNCAzLjcgMS4zIDQuNiAxLjYgMC45IDMuNyAwLjQgNC42LTEuMnMwLjMtMy43LTEuMy00Ljd6IiBjbGFzcz0ic3QxMCIgaWQ9InBhdGgxMDc1Ii8+JiN4YTs8cGF0aCBkPSJtMzYwLjQgMTMxLjljLTkgMC0xNi40IDcuMy0xNi40IDE2LjQgMCA5IDcuMyAxNi40IDE2LjQgMTYuNCA5IDAgMTYuMy03LjMgMTYuNC0xNi4zLTAuMS05LjEtNy40LTE2LjUtMTYuNC0xNi41eiIgY2xhc3M9InN0MTEiIGlkPSJwYXRoMTA3NyIvPiYjeGE7PHBhdGggZD0ibTMzMy4zIDE0OC4zYzAtNi41LTUuMi0xMS43LTExLjctMTEuN3MtMTEuNyA1LjItMTEuNyAxMS43IDUuMiAxMS43IDExLjcgMTEuN2M2LjQgMCAxMS43LTUuMiAxMS43LTExLjd6IiBjbGFzcz0ic3QxMSIgaWQ9InBhdGgxMDc5Ii8+JiN4YTs8cGF0aCBkPSJtMjkxLjMgMTQwLjNjLTQuNCAwLTggMy42LTggOHMzLjYgOCA4IDggOC0zLjYgOC04LTMuNi04LTgtOHoiIGNsYXNzPSJzdDExIiBpZD0icGF0aDEwODEiLz4mI3hhOzxwYXRoIGQ9Im0yNzMgMTQ4LjNjMC0yLjktMi4zLTUuMi01LjItNS4ycy01LjIgMi4zLTUuMiA1LjIgMi4zIDUuMiA1LjIgNS4yIDUuMi0yLjMgNS4yLTUuMnoiIGNsYXNzPSJzdDEyIiBpZD0icGF0aDEwODMiLz4mI3hhOzxwYXRoIGQ9Im0zNTkuNSAxNjkuNWMtOC0yLjItMTYuMiAyLjYtMTguNCAxMC42czIuNiAxNi4yIDEwLjYgMTguNCAxNi4yLTIuNiAxOC40LTEwLjZ2LTAuMWMyLjEtNy45LTIuNy0xNi4xLTEwLjYtMTguM3oiIGNsYXNzPSJzdDEzIiBpZD0icGF0aDEwODUiLz4mI3hhOzxwYXRoIGQ9Im0zMTUuNSAxODMuOGM1LjQgMS41IDExLTEuOCAxMi41LTcuMnMtMS44LTExLTcuMi0xMi41LTExIDEuOC0xMi41IDcuMiAxLjcgMTEgNy4yIDEyLjV6IiBjbGFzcz0ic3QxMyIgaWQ9InBhdGgxMDg3Ii8+JiN4YTs8cGF0aCBkPSJtMjg2LjkgMTczLjRjNCAxLjEgOC4xLTEuMyA5LjItNS4zcy0xLjMtOC4xLTUuMy05LjItOC4xIDEuMy05LjIgNS4zYy0xIDQgMS4zIDguMSA1LjMgOS4yeiIgY2xhc3M9InN0MTMiIGlkPSJwYXRoMTA4OSIvPiYjeGE7PHBhdGggZD0ibTI2NSAxNjQuN2MyLjUgMC43IDUuMS0wLjggNS44LTMuNCAwLjctMi41LTAuOC01LjEtMy40LTUuOC0yLjUtMC43LTUuMSAwLjgtNS44IDMuNC0wLjcgMi40IDAuOCA1LjEgMy40IDUuOHYweiIgY2xhc3M9InN0MTMiIGlkPSJwYXRoMTA5MSIvPiYjeGE7PHBhdGggZD0ibTM0OC42IDIwNS41Yy02LjUtMy44LTE0LjgtMS41LTE4LjYgNXMtMS41IDE0LjggNSAxOC42IDE0LjggMS41IDE4LjYtNWMzLjctNi41IDEuNS0xNC44LTUtMTguNnoiIGNsYXNzPSJzdDE0IiBpZD0icGF0aDEwOTMiLz4mI3hhOzxwYXRoIGQ9Im0zMTYuNSAyMDIuN2MyLjYtNC42IDEuMS0xMC40LTMuNS0xM3MtMTAuNC0xLjEtMTMgMy41LTEuMSAxMC40IDMuNSAxM2M0LjUgMi42IDEwLjMgMSAxMy0zLjV6IiBjbGFzcz0ic3QxNCIgaWQ9InBhdGgxMDk1Ii8+JiN4YTs8cGF0aCBkPSJtMjg3LjggMTg2LjJjMS45LTMuMyAwLjgtNy40LTIuNS05LjNzLTcuNC0wLjgtOS4zIDIuNS0wLjggNy40IDIuNSA5LjNjMy4zIDEuOCA3LjQgMC43IDkuMy0yLjV6IiBjbGFzcz0ic3QxNCIgaWQ9InBhdGgxMDk3Ii8+JiN4YTs8cGF0aCBkPSJtMjY1LjUgMTczLjJjMS4yLTIuMSAwLjUtNC44LTEuNi02LjEtMi4xLTEuMi00LjgtMC41LTYuMSAxLjZzLTAuNSA0LjggMS42IDYuMWgwLjFjMi4xIDEuMiA0LjggMC41IDYtMS42eiIgY2xhc3M9InN0MTQiIGlkPSJwYXRoMTA5OSIvPiYjeGE7PHBhdGggZD0ibTMxMS4xIDIzNy4yYy00LjggNC44LTQuOCAxMi41IDAgMTcuM3MxMi41IDQuOCAxNy4zIDAgNC44LTEyLjUgMC0xNy4zYy00LjctNC43LTEyLjUtNC43LTE3LjMgMHoiIGNsYXNzPSJzdDE1IiBpZD0icGF0aDExMDEiLz4mI3hhOzxwYXRoIGQ9Im0yOTguNiAyMjQuN2MzLjUtMy41IDMuNS05LjEgMC0xMi41LTMuNS0zLjUtOS4xLTMuNS0xMi41IDAtMy41IDMuNS0zLjUgOS4xIDAgMTIuNSAzLjQgMy41IDkgMy41IDEyLjUgMHoiIGNsYXNzPSJzdDE1IiBpZD0icGF0aDExMDMiLz4mI3hhOzxwYXRoIGQ9Im0yNzUuMyAyMDEuNGMyLjQtMi40IDIuNC02LjMgMC04LjdzLTYuMy0yLjQtOC43IDAtMi40IDYuMyAwIDguNmMyLjQgMi41IDYuMyAyLjUgOC43IDAuMXoiIGNsYXNzPSJzdDE1IiBpZD0icGF0aDExMDUiLz4mI3hhOzxwYXRoIGQ9Im0yNTEuNSAxODMuM2MxLjYgMS42IDQuMiAxLjYgNS44IDBzMS42LTQuMiAwLTUuOC00LjItMS42LTUuOCAwLTEuNiA0LjIgMCA1Ljh6IiBjbGFzcz0ic3QxNSIgaWQ9InBhdGgxMTA3Ii8+JiN4YTs8cGF0aCBkPSJtMjg1LjQgMjU3LjhjLTUuNSAzLjItNy40IDEwLjMtNC4yIDE1LjhzMTAuMyA3LjQgMTUuOCA0LjIgNy40LTEwLjMgNC4yLTE1LjgtMTAuMy03LjQtMTUuOC00LjJ6IiBjbGFzcz0ic3QxNiIgaWQ9InBhdGgxMTA5Ii8+JiN4YTs8cGF0aCBkPSJtMjc4LjggMjMwLjJjLTIuMy0zLjktNy4yLTUuMy0xMS4yLTMtMy45IDIuMy01LjMgNy4yLTMgMTEuMiAyLjMgMy45IDcuMiA1LjMgMTEuMiAzIDMuOS0yLjMgNS4zLTcuMyAzLTExLjJ6IiBjbGFzcz0ic3QxNiIgaWQ9InBhdGgxMTExIi8+JiN4YTs8cGF0aCBkPSJtMjU5LjMgMjEyLjdjMi42LTEuNSAzLjUtNC44IDItNy40cy00LjgtMy41LTcuNC0yLTMuNSA0LjgtMiA3LjQgNC44IDMuNSA3LjQgMnoiIGNsYXNzPSJzdDE2IiBpZD0icGF0aDExMTMiLz4mI3hhOzxwYXRoIGQ9Im0yNDMgMTg0LjRjLTEuOCAxLTIuNCAzLjMtMS40IDUuMXMzLjMgMi40IDUuMSAxLjQgMi40LTMuMyAxLjQtNS4xLTMuMy0yLjQtNS4xLTEuNHoiIGNsYXNzPSJzdDE2IiBpZD0icGF0aDExMTUiLz4mI3hhOzxwYXRoIGQ9Im0yNTUgMjcxLjFjLTUuOCAxLjYtOS4zIDcuNS03LjcgMTMuM3M3LjUgOS4zIDEzLjMgNy43IDkuMy03LjUgNy43LTEzLjNjLTEuNS01LjgtNy41LTkuMy0xMy4zLTcuN3oiIGNsYXNzPSJzdDE3IiBpZD0icGF0aDExMTciLz4mI3hhOzxwYXRoIGQ9Im0yNDkuNyAyNTEuM2M0LTEuMSA2LjQtNS4yIDUuMy05LjJzLTUuMi02LjQtOS4yLTUuMy02LjMgNS4yLTUuMyA5LjJjMS4xIDQuMSA1LjIgNi40IDkuMiA1LjN2MHoiIGNsYXNzPSJzdDE3IiBpZD0icGF0aDExMTkiLz4mI3hhOzxwYXRoIGQ9Im0yNDQuOCAyMTMuNWMtMC43LTIuNy0zLjUtNC4zLTYuMi0zLjZzLTQuMyAzLjUtMy42IDYuMiAzLjUgNC4zIDYuMiAzLjZjMi44LTAuNiA0LjQtMy40IDMuNi02LjJ2MHoiIGNsYXNzPSJzdDE3IiBpZD0icGF0aDExMjEiLz4mI3hhOzxwYXRoIGQ9Im0yMzcuMSAxOTEuM2MtMC41LTEuOC0yLjQtMi45LTQuMi0yLjRzLTIuOSAyLjQtMi40IDQuMiAyLjMgMi45IDQuMiAyLjRjMS44LTAuNSAyLjktMi40IDIuNC00LjJ6IiBjbGFzcz0ic3QxNyIgaWQ9InBhdGgxMTIzIi8+JiN4YTs8cGF0aCBkPSJtMjIyIDI3Ni4xYy01LjYgMC0xMC4yIDQuNi0xMC4yIDEwLjJzNC42IDEwLjIgMTAuMiAxMC4yIDEwLjItNC41IDEwLjItMTAuMmMwLTUuNi00LjUtMTAuMi0xMC4yLTEwLjJ6IiBjbGFzcz0ic3QxOCIgaWQ9InBhdGgxMTI1Ii8+JiN4YTs8cGF0aCBkPSJtMjE1LjIgMjQ3LjVjMCAzLjggMyA2LjggNi44IDYuOHM2LjgtMyA2LjgtNi44LTMtNi44LTYuOC02LjhjLTMuNyAwLTYuOCAzLTYuOCA2Ljh6IiBjbGFzcz0ic3QxOCIgaWQ9InBhdGgxMTI3Ii8+JiN4YTs8cGF0aCBkPSJtMjIyIDIyMS45YzIuNiAwIDQuOC0yLjEgNC44LTQuOHMtMi4xLTQuOC00LjgtNC44Yy0yLjYgMC00LjggMi4xLTQuOCA0LjggMC4xIDIuNyAyLjIgNC44IDQuOCA0Ljh2MHoiIGNsYXNzPSJzdDE4IiBpZD0icGF0aDExMjkiLz4mI3hhOzxwYXRoIGQ9Im0yMjIgMTkwLjZjLTEuNyAwLTMuMSAxLjQtMy4xIDMuMXMxLjQgMy4xIDMuMSAzLjEgMy4xLTEuNCAzLjEtMy4xLTEuNC0zLjEtMy4xLTMuMXoiIGNsYXNzPSJzdDE4IiBpZD0icGF0aDExMzEiLz4mI3hhOzxwYXRoIGQ9Im0xODguNyAyNzIuM2MtNS4xLTEuNC0xMC4zIDEuNy0xMS43IDYuNy0xLjQgNS4xIDEuNyAxMC4zIDYuNyAxMS43IDUuMSAxLjQgMTAuMy0xLjcgMTEuNy02LjcgMS40LTUuMS0xLjYtMTAuMy02LjctMTEuN3oiIGNsYXNzPSJzdDE5IiBpZD0icGF0aDExMzMiLz4mI3hhOzxwYXRoIGQ9Im0xOTcuOSAyMzguMWMtMy4zLTAuOS02LjYgMS4xLTcuNSA0LjMtMC45IDMuMyAxLjEgNi42IDQuMyA3LjUgMy4zIDAuOSA2LjYtMS4xIDcuNS00LjNzLTEtNi42LTQuMy03LjV6IiBjbGFzcz0ic3QxOSIgaWQ9InBhdGgxMTM1Ii8+JiN4YTs8cGF0aCBkPSJtMjA1LjMgMjEwLjVjLTIuNC0wLjYtNC44IDAuOC01LjQgMy4xLTAuNiAyLjQgMC44IDQuOCAzLjEgNS40IDIuNCAwLjYgNC44LTAuOCA1LjQtMy4xIDAuNy0yLjMtMC43LTQuNy0zLjEtNS40eiIgY2xhc3M9InN0MTkiIGlkPSJwYXRoMTEzNyIvPiYjeGE7PHBhdGggZD0ibTIxMi45IDE5Mi44YzAuNC0xLjUtMC41LTMtMS45LTMuM3MtMyAwLjUtMy4zIDEuOSAwLjUgMyAxLjkgMy4zYzEuNCAwLjQgMi45LTAuNCAzLjMtMS45eiIgY2xhc3M9InN0MTkiIGlkPSJwYXRoMTEzOSIvPiYjeGE7PHBhdGggZD0ibTE1Ny40IDI2MGMtNC4yLTIuNC05LjYtMS0xMi4xIDMuMi0yLjQgNC4yLTEgOS42IDMuMiAxMi4xIDQuMiAyLjQgOS42IDEgMTIuMS0zLjJzMS05LjYtMy4yLTEyLjF6IiBjbGFzcz0ic3QyMCIgaWQ9InBhdGgxMTQxIi8+JiN4YTs8cGF0aCBkPSJtMTc1LjEgMjI5LjRjLTIuNi0xLjUtNS45LTAuNi03LjQgMnMtMC42IDUuOSAyIDcuNCA1LjkgMC42IDcuNC0yIDAuNi01LjktMi03LjR6IiBjbGFzcz0ic3QyMCIgaWQ9InBhdGgxMTQzIi8+JiN4YTs8cGF0aCBkPSJtMTg1LjUgMjExLjRjMiAxLjEgNC41IDAuNSA1LjYtMS41czAuNS00LjUtMS41LTUuNi00LjUtMC41LTUuNiAxLjUtMC41IDQuNSAxLjUgNS42eiIgY2xhc3M9InN0MjAiIGlkPSJwYXRoMTE0NSIvPiYjeGE7PHBhdGggZD0ibTIwMC41IDE4NS40Yy0xLjEtMC43LTIuNi0wLjMtMy4yIDAuOS0wLjcgMS4xLTAuMyAyLjYgMC45IDMuMiAxLjEgMC43IDIuNiAwLjMgMy4yLTAuOSAwLjYtMSAwLjItMi41LTAuOS0zLjJ2MHoiIGNsYXNzPSJzdDIwIiBpZD0icGF0aDExNDciLz4mI3hhOzxwYXRoIGQ9Im0xMTguNiAyMzkuOWMtMy4yIDMuMi0zLjIgOC40IDAgMTEuNnM4LjQgMy4yIDExLjYgMCAzLjItOC40IDAtMTEuNi04LjQtMy4yLTExLjYgMHoiIGNsYXNzPSJzdDIxIiBpZD0icGF0aDExNDkiLz4mI3hhOzxwYXRoIGQ9Im0xNDguNSAyMTQuOWMtMS45IDEuOS0xLjkgNC45IDAgNi43IDEuOSAxLjkgNC45IDEuOSA2LjcgMHMxLjktNC45IDAtNi43Yy0xLjgtMS45LTQuOS0xLjktNi43IDB6IiBjbGFzcz0ic3QyMSIgaWQ9InBhdGgxMTUxIi8+JiN4YTs8cGF0aCBkPSJtMTcwLjYgMTk0LjJjLTEuNSAxLjUtMS41IDMuOCAwIDUuM3MzLjggMS41IDUuMyAwIDEuNS0zLjggMC01LjMtMy45LTEuNS01LjMgMHoiIGNsYXNzPSJzdDIxIiBpZD0icGF0aDExNTMiLz4mI3hhOzxwYXRoIGQ9Im0xOTEuMyAxNzguOGMtMC44LTAuOC0yLjEtMC43LTIuOCAwLjEtMC44IDAuOC0wLjcgMi4xIDAuMSAyLjhzMiAwLjcgMi44IDBjMC43LTAuOCAwLjctMi4xLTAuMS0yLjl6IiBjbGFzcz0ic3QyMSIgaWQ9InBhdGgxMTU1Ii8+JiN4YTs8cGF0aCBkPSJtOTguNyAyMTAuNmMtMy42IDIuMS00LjggNi42LTIuNyAxMC4yczYuNiA0LjggMTAuMiAyLjcgNC44LTYuNiAyLjctMTAuMmMtMi0zLjYtNi42LTQuOC0xMC4yLTIuN3oiIGNsYXNzPSJzdDIyIiBpZD0icGF0aDExNTciLz4mI3hhOzxwYXRoIGQ9Im0xMzQgMTk0LjFjLTEuOSAxLjEtMi42IDMuNi0xLjUgNS42IDEuMSAxLjkgMy42IDIuNiA1LjYgMS41IDEuOS0xLjEgMi42LTMuNiAxLjUtNS42LTEuMS0xLjktMy42LTIuNi01LjYtMS41eiIgY2xhc3M9InN0MjIiIGlkPSJwYXRoMTE1OSIvPiYjeGE7PHBhdGggZD0ibTE2MC42IDE3OS42Yy0xLjYgMC45LTIuMiAzLTEuMiA0LjYgMC45IDEuNiAzIDIuMiA0LjYgMS4yIDEuNi0wLjkgMi4yLTMgMS4yLTQuNi0wLjktMS42LTMtMi4yLTQuNi0xLjJ6IiBjbGFzcz0ic3QyMiIgaWQ9InBhdGgxMTYxIi8+JiN4YTs8cGF0aCBkPSJtODMuNSAxMjQuNWgxMnY0Ni4yaC0xMnptNy4zLTIwLjZjLTMuNy0xLTcuNSAxLjItOC41IDQuOXMxLjIgNy41IDQuOSA4LjUgNy41LTEuMiA4LjUtNC45LTEuMi03LjYtNC45LTguNXptNDEuOCA2Ny44Yy0yLjkgMC01LjgtMC41LTguNS0xLjctMi40LTEuMS00LjUtMi44LTYuMS00Ljl2MjguN2gtMTEuN3YtNjkuM2gxMS42djYuNGMxLjUtMi4zIDMuNi00LjEgNi4xLTUuNCAyLjYtMS4zIDUuNS0yIDguNS0yIDIuOSAwIDUuNyAwLjYgOC40IDEuN3M1LjEgMi44IDcuMSA0LjhjMi4xIDIuMiAzLjggNC44IDQuOSA3LjYgMS4zIDMuMiAxLjkgNi41IDEuOCA5LjkgMC4xIDMuNC0wLjYgNi44LTEuOSAxMC0xLjIgMi44LTIuOSA1LjQtNSA3LjYtMy45IDQuMi05LjUgNi42LTE1LjIgNi42em0tMi40LTExLjJjMS43IDAgMy40LTAuMyA1LTEgMS41LTAuNyAyLjktMS42IDQuMS0yLjhzMi4xLTIuNiAyLjctNC4xYzEuMy0zLjMgMS4zLTYuOSAwLTEwLjItMC42LTEuNS0xLjYtMi45LTIuNy00LjEtMS4yLTEuMi0yLjYtMi4xLTQuMS0yLjgtMS42LTAuNy0zLjMtMS01LTEtMy40IDAtNi43IDEuNC05LjIgMy44LTEuMiAxLjItMi4xIDIuNi0yLjcgNC4xLTEuMyAzLjMtMS4zIDYuOSAwIDEwLjEgMC42IDEuNSAxLjUgMi45IDIuNyA0LjEgMi41IDIuNiA1LjggNCA5LjIgMy45em0zMy4xLTM2aDExLjZ2Ny4xYzEtMi41IDIuNy00LjYgNS02IDIuNC0xLjMgNS0yIDcuOC0xLjkgMS41IDAgMi45IDAuMiA0LjMgMC41IDEuMiAwLjMgMi40IDAuNyAzLjUgMS4zbC00LjMgMTEuNmMtMC44LTAuNS0xLjctMC45LTIuNi0xLjItMS4yLTAuMy0yLjQtMC41LTMuNi0wLjUtMi43LTAuMS01LjMgMC44LTcuMyAyLjUtMS44IDEuNy0yLjcgNC41LTIuNyA4LjN2MjQuNGgtMTEuN3ptNTguMyA0Ny4yYy0zLjMgMC02LjYtMC42LTkuNy0xLjktMi45LTEuMi01LjUtMy03LjgtNS4yLTQuNS00LjUtNy0xMC42LTctMTcgMC0zLjIgMC42LTYuNCAxLjgtOS40IDEuMi0yLjkgMi45LTUuNSA1LjEtNy43IDkuNy05LjQgMjUuMS05LjQgMzQuOCAwIDQuNSA0LjUgNy4xIDEwLjYgNy4xIDE3IDAgMy4yLTAuNiA2LjQtMS45IDkuMy0xLjIgMi45LTMgNS41LTUuMSA3LjctMi4yIDIuMi00LjggNC03LjggNS4yLTIuOSAxLjMtNi4yIDItOS41IDJ6bTAuMS0xMS4yYzEuNyAwIDMuNC0wLjMgNS0xIDEuNS0wLjcgMi44LTEuNiA0LTIuNyAxLjItMS4yIDIuMS0yLjYgMi43LTQuMSAxLjMtMy4zIDEuMy02LjkgMC0xMC4xLTAuNi0xLjUtMS41LTIuOS0yLjctNC4xcy0yLjUtMi4xLTQtMi43Yy0zLjItMS40LTYuOC0xLjQtOS45IDAtMS41IDAuNy0yLjggMS42LTQgMi43LTEuMiAxLjItMi4xIDIuNi0yLjcgNC4xLTEuMyAzLjMtMS4zIDYuOSAwIDEwLjEgMC42IDEuNSAxLjUgMi45IDIuNyA0LjFzMi41IDIuMSA0IDIuNyAzLjIgMSA0LjkgMXptLTIyMS43LTM2aDEybDkuMyAyOS41IDExLTI5LjVoMTAuNGwxMC44IDI5LjUgOS43LTI5LjVoMTJsLTE1LjcgNDYuMmgtMTEuMWwtMTEtMzAuMS0xMS4xIDMwLjFoLTExLjN6IiBjbGFzcz0ic3QyMyIgaWQ9InBhdGgxMTYzIi8+JiN4YTs8L3N2Zz4=;shadow=1;" vertex="1" parent="1">
          <mxGeometry x="927" y="379" width="249" height="196.16" as="geometry" />
        </mxCell>
        <mxCell id="xL_jgTfwNhBm32-HtVtW-6" value="EC2 (Elastic Compute Cloud) Instance Module with SSM IAM Role and User Data Configuration" style="text;html=1;align=left;verticalAlign=middle;whiteSpace=wrap;rounded=0;fontColor=#FFFFFF;fontSize=20;fontFamily=Segoe Script;fontStyle=0;spacingLeft=10;" vertex="1" parent="1">
          <mxGeometry x="1" y="559" width="1193" height="94" as="geometry" />
        </mxCell>
        <mxCell id="xL_jgTfwNhBm32-HtVtW-7" value="" style="shape=image;verticalLabelPosition=bottom;labelBackgroundColor=default;verticalAlign=top;aspect=fixed;imageAspect=0;image=data:image/svg+xml,PHN2ZyB4bWxucz0iaHR0cDovL3d3dy53My5vcmcvMjAwMC9zdmciIHhtbDpzcGFjZT0icHJlc2VydmUiIHN0eWxlPSJlbmFibGUtYmFja2dyb3VuZDpuZXcgMCAwIDQwMi44IDgzLjM7IiB2aWV3Qm94PSIwIDAgNDAyLjggODMuMyIgeT0iMHB4IiB4PSIwcHgiIGlkPSJMYXllcl8xIiB2ZXJzaW9uPSIxLjEiPjxkZWZzIGlkPSJkZWZzNDkiLz4mI3hhOzxzdHlsZSBpZD0ic3R5bGUxIiB0eXBlPSJ0ZXh0L2NzcyI+JiN4YTsJLnN0MHtmaWxsOnVybCgjU1ZHSURfMV8pO30mI3hhOwkuc3Qxe2ZpbGw6dXJsKCNTVkdJRF8yXyk7fSYjeGE7CS5zdDJ7ZmlsbDojNkI2RDcyO30mI3hhOwkuc3Qze2ZpbGw6IzJEMzQ4Njt9JiN4YTs8L3N0eWxlPiYjeGE7PHRpdGxlIGlkPSJ0aXRsZTEiPkNsb3NlIEJyb3RoZXJzX0ZsYXQgTG9nbzwvdGl0bGU+JiN4YTs8bGluZWFyR3JhZGllbnQgZ3JhZGllbnRUcmFuc2Zvcm09InRyYW5zbGF0ZSgwLC00ODIpIiB5Mj0iNTA0Ljc0MzIiIHgyPSI2NC4xNDg0IiB5MT0iNTIxLjY1ODQiIHgxPSIxLjAyIiBncmFkaWVudFVuaXRzPSJ1c2VyU3BhY2VPblVzZSIgaWQ9IlNWR0lEXzFfIj4mI3hhOwk8c3RvcCBpZD0ic3RvcDEiIHN0eWxlPSJzdG9wLWNvbG9yOiMyQzM1ODQiIG9mZnNldD0iMCIvPiYjeGE7CTxzdG9wIGlkPSJzdG9wMiIgc3R5bGU9InN0b3AtY29sb3I6IzQ2NjFBNyIgb2Zmc2V0PSIwIi8+JiN4YTsJPHN0b3AgaWQ9InN0b3AzIiBzdHlsZT0ic3RvcC1jb2xvcjojMjk2NUFCIiBvZmZzZXQ9IjEuMDExNDczZS0wMiIvPiYjeGE7CTxzdG9wIGlkPSJzdG9wNCIgc3R5bGU9InN0b3AtY29sb3I6IzEyOEZDRCIgb2Zmc2V0PSIwLjI0NDciLz4mI3hhOwk8c3RvcCBpZD0ic3RvcDUiIHN0eWxlPSJzdG9wLWNvbG9yOiMwNTlBREEiIG9mZnNldD0iMC4yOTM1Ii8+JiN4YTsJPHN0b3AgaWQ9InN0b3A2IiBzdHlsZT0ic3RvcC1jb2xvcjojMDA5RkRGIiBvZmZzZXQ9IjAuMzM4NyIvPiYjeGE7CTxzdG9wIGlkPSJzdG9wNyIgc3R5bGU9InN0b3AtY29sb3I6IzA3OUNEQiIgb2Zmc2V0PSIwLjQwOTYiLz4mI3hhOwk8c3RvcCBpZD0ic3RvcDgiIHN0eWxlPSJzdG9wLWNvbG9yOiMxQTk1RDAiIG9mZnNldD0iMC41MTEzIi8+JiN4YTsJPHN0b3AgaWQ9InN0b3A5IiBzdHlsZT0ic3RvcC1jb2xvcjojMUE5NUQwIiBvZmZzZXQ9IjAuNTEyMiIvPiYjeGE7CTxzdG9wIGlkPSJzdG9wMTAiIHN0eWxlPSJzdG9wLWNvbG9yOiMxOTY2QUEiIG9mZnNldD0iMC42OTUiLz4mI3hhOwk8c3RvcCBpZD0ic3RvcDExIiBzdHlsZT0ic3RvcC1jb2xvcjojMTk0NjkwIiBvZmZzZXQ9IjAuODMwMiIvPiYjeGE7CTxzdG9wIGlkPSJzdG9wMTIiIHN0eWxlPSJzdG9wLWNvbG9yOiMyQzM1ODQiIG9mZnNldD0iMC45NTE2Ii8+JiN4YTsJPHN0b3AgaWQ9InN0b3AxMyIgc3R5bGU9InN0b3AtY29sb3I6IzJDMzU4NCIgb2Zmc2V0PSIwLjk4NTciLz4mI3hhOzwvbGluZWFyR3JhZGllbnQ+JiN4YTsmI3hhOzxsaW5lYXJHcmFkaWVudCBncmFkaWVudFRyYW5zZm9ybT0idHJhbnNsYXRlKDAsLTQ4MikiIHkyPSI1MzQuNCIgeDI9IjU0LjA2NTciIHkxPSI1MzQuNCIgeDE9IjEzLjI1IiBncmFkaWVudFVuaXRzPSJ1c2VyU3BhY2VPblVzZSIgaWQ9IlNWR0lEXzJfIj4mI3hhOwk8c3RvcCBpZD0ic3RvcDE0IiBzdHlsZT0ic3RvcC1jb2xvcjojQkJCQ0JFIiBvZmZzZXQ9IjAuNSIvPiYjeGE7CTxzdG9wIGlkPSJzdG9wMTUiIHN0eWxlPSJzdG9wLWNvbG9yOiM5Njk4OUIiIG9mZnNldD0iMSIvPiYjeGE7PC9saW5lYXJHcmFkaWVudD4mI3hhOzxnIHRyYW5zZm9ybT0idHJhbnNsYXRlKDAsOC4xMjUwMDE1KSIgaWQ9Imc1MCI+PHBhdGggc3R5bGU9ImZpbGw6dXJsKCNTVkdJRF8xXykiIGlkPSJwYXRoMTMiIGQ9Im0gMzMuMiwwLjggYyAtMTgsMCAtMzIuNywxNC42IC0zMi43LDMyLjcgMCw4LjUgMy4zLDE2LjcgOS4zLDIyLjggMC4yLDAuMiAwLjQsMC4yIDAuNSwwIHYgMCBMIDIyLDQ0LjYgYyAwLjEsLTAuMiAwLjEsLTAuNCAwLC0wLjUgQyAxOS4yLDQxLjIgMTcuNywzNy4zIDE3LjcsMzMuMyAxNy44LDI1IDI0LjYsMTguMSAzMi45LDE4IGMgOC41LC0wLjEgMTUuNSw2LjcgMTUuNiwxNS4yIDAuMSw0IC0xLjUsNy45IC00LjMsMTAuOSAtMC4xLDAuMiAtMC4xLDAuNCAwLDAuNSBsIDExLjYsMTEuNiBjIDAuMiwwLjIgMC40LDAuMiAwLjUsMCB2IDAgYyA2LC02LjEgOS4zLC0xNC4zIDkuMywtMjIuOCBDIDY1LjksMTUuNCA1MS4zLDAuOCAzMy4yLDAuOCBaIiBjbGFzcz0ic3QwIi8+PHBhdGggc3R5bGU9ImZpbGw6dXJsKCNTVkdJRF8yXykiIGlkPSJwYXRoMTUiIGQ9Im0gMzMuNCwzOC43IC0yMCwyMCBjIC0wLjIsMC4yIC0wLjIsMC40IDAsMC41IHYgMCBjIDExLjgsOS40IDI4LjcsOS40IDQwLjUsMCAwLjIsLTAuMSAwLjIsLTAuNCAwLjEsLTAuNSB2IDAgbCAtMjAsLTIwIGMgLTAuMiwtMC4yIC0wLjQsLTAuMiAtMC42LDAgeiIgY2xhc3M9InN0MSIvPjwvZz4mI3hhOyYjeGE7PGcgdHJhbnNmb3JtPSJ0cmFuc2xhdGUoMCw4LjYwMDAwMTUpIiBpZD0iZzQ5Ij4mI3hhOwk8cGF0aCBpZD0icGF0aDM3IiBkPSJtIDM4MS41LDQ3IDIuMSwtMy43IGMgMC4xLC0wLjIgMC4zLC0wLjIgMC40LC0wLjEgMi44LDIgNS43LDMuMiA4LjMsMy4yIDIuNiwwIDQuMywtMS4xIDQuMywtMyAwLC00LjEgLTE0LjIsLTIuMyAtMTQuMiwtMTEuNyAwLC01IDQuNCwtOC4xIDkuNywtOC4xIDMuMywwIDYuNiwxLjEgOS40LDIuOSAwLjEsMC4xIDAuMSwwLjIgMC4xLDAuMyBsIC0yLjIsNCBjIC0wLjEsMC4xIC0wLjIsMC4xIC0wLjMsMC4xIC0yLjUsLTEuNSAtNC45LC0yLjQgLTcuMSwtMi40IC0yLjQsMCAtMy45LDEuMSAtMy45LDIuNyAwLDQuNCAxNC4yLDIuNyAxNC4yLDExLjggMCw1LjYgLTQuNSw4LjMgLTEwLDguMyAtMy43LDAgLTcuNCwtMS4yIC0xMC43LC0zLjggLTAuMiwtMC4xIC0wLjMsLTAuMyAtMC4xLC0wLjUiIGNsYXNzPSJzdDMiLz4mI3hhOwk8cGF0aCBpZD0icGF0aDM4IiBkPSJtIDE1Mi41LDQ3IDIuMSwtMy43IGMgMC4xLC0wLjIgMC4zLC0wLjIgMC40LC0wLjEgMi44LDIgNS43LDMuMiA4LjMsMy4yIDIuNiwwIDQuMywtMS4xIDQuMywtMyAwLC00LjEgLTE0LjIsLTIuMyAtMTQuMiwtMTEuNyAwLC01IDQuNCwtOC4xIDkuNywtOC4xIDMuMywwIDYuNiwxLjEgOS40LDIuOSAwLjEsMC4xIDAuMSwwLjIgMC4xLDAuMyBsIC0yLjIsNCBjIC0wLjEsMC4xIC0wLjIsMC4xIC0wLjMsMC4xIC0yLjUsLTEuNSAtNC45LC0yLjQgLTcuMSwtMi40IC0yLjQsMCAtMy45LDEuMSAtMy45LDIuNyAwLDQuNCAxNC4yLDIuNyAxNC4yLDExLjggMCw1LjYgLTQuNSw4LjMgLTEwLDguMyAtMy43LDAgLTcuNCwtMS4yIC0xMC43LC0zLjggLTAuMiwtMC4xIC0wLjMsLTAuMyAtMC4xLC0wLjUiIGNsYXNzPSJzdDMiLz4mI3hhOwk8cGF0aCBpZD0icGF0aDM5IiBkPSJtIDM1OC41LDQzLjEgYyAtMC4xLC0wLjEgLTAuMiwtMC4xIC0wLjMsMCAtMi4xLDIgLTQuMywzLjEgLTcuMiwzLjEgLTMuOCwwIC02LjksLTIgLTcuNiwtNi4yIDAsLTAuMSAwLjEsLTAuMiAwLjIsLTAuMiBoIDE5LjEgYyAwLjEsMCAwLjIsLTAuMSAwLjIsLTAuMiAwLjksLTkuNSAtNC44LC0xNiAtMTIsLTE2IC03LjIsMCAtMTMuNiw1LjMgLTEzLjYsMTMuOSAwLDguMiA1LjksMTMuNyAxMy42LDEzLjcgNC44LDAgOC4xLC0xLjggMTAuNiwtNC43IDAuMSwtMC4xIDAuMSwtMC4yIDAsLTAuMyB6IG0gLTEuNywtNy41IGggLTEzLjIgYyAtMC4xLDAgLTAuMiwtMC4xIC0wLjIsLTAuMiAwLjYsLTQgMy4yLC02LjggNi44LC02LjggMy45LDAgNi4yLDIuOSA2LjcsNi44IDAuMSwwLjEgMCwwLjIgLTAuMSwwLjIgeiIgY2xhc3M9InN0MyIvPiYjeGE7CTxwYXRoIGlkPSJwYXRoNDAiIGQ9Im0gMTk2LjUsNDMuMSBjIC0wLjEsLTAuMSAtMC4yLC0wLjEgLTAuMywwIC0yLjEsMiAtNC4zLDMuMSAtNy4yLDMuMSAtMy44LDAgLTYuOSwtMiAtNy42LC02LjIgMCwtMC4xIDAuMSwtMC4yIDAuMiwtMC4yIGggMTkuMSBjIDAuMSwwIDAuMiwtMC4xIDAuMiwtMC4yIDAuOSwtOS41IC00LjgsLTE2IC0xMiwtMTYgLTcuMiwwIC0xMy42LDUuMyAtMTMuNiwxMy45IDAsOC4yIDUuOSwxMy43IDEzLjYsMTMuNyA0LjgsMCA4LjEsLTEuOCAxMC42LC00LjcgMC4xLC0wLjEgMC4xLC0wLjIgMCwtMC4zIHogbSAtMS43LC03LjUgaCAtMTMuMiBjIC0wLjEsMCAtMC4yLC0wLjEgLTAuMiwtMC4yIDAuNiwtNCAzLjIsLTYuOCA2LjgsLTYuOCAzLjksMCA2LjIsMi45IDYuNyw2LjggMC4xLDAuMSAwLDAuMiAtMC4xLDAuMiB6IiBjbGFzcz0ic3QzIi8+JiN4YTsJPHBhdGggaWQ9InBhdGg0MSIgZD0ibSA3OS4xLDMzLjEgYyAwLC0xMC4yIDcuNSwtMTguMyAxOC4xLC0xOC4zIDYuNCwwIDEwLjMsMi4yIDEzLjYsNS4zIDAuMSwwLjEgMC4xLDAuMiAwLDAuMyBsIC0zLjcsNC4zIGMgLTAuMSwwLjEgLTAuMiwwLjEgLTAuMywwIC0yLjgsLTIuNSAtNS43LC00LjIgLTkuNywtNC4yIC02LjcsMCAtMTEuNiw1LjUgLTExLjYsMTIuNSAwLDYuOSA0LjksMTIuNSAxMS42LDEyLjUgNC4zLDAgNywtMS43IDEwLC00LjQgMC4xLC0wLjEgMC4yLC0wLjEgMC4zLDAgbCAzLjcsMy43IGMgMC4xLDAuMSAwLjEsMC4yIDAsMC4zIC0zLjYsMy43IC03LjYsNi4xIC0xNC4xLDYuMSAtMTAuMiwwIC0xNy45LC04IC0xNy45LC0xOC4xIHoiIGNsYXNzPSJzdDMiLz4mI3hhOwk8cGF0aCBpZD0icGF0aDQyIiBkPSJtIDEzNy4xLDIzLjYgYyAtNy44LDAgLTE0LjEsNi4yIC0xNC4xLDEzLjggMCw3LjYgNi4zLDEzLjggMTQuMSwxMy44IDcuOCwwIDE0LjEsLTYuMiAxNC4xLC0xMy44IDAsLTcuNiAtNi4zLC0xMy44IC0xNC4xLC0xMy44IHogbSAwLDIyLjQgYyAtNC40LDAgLTgsLTMuOCAtOCwtOC42IDAsLTQuNyAzLjYsLTguNiA4LC04LjYgNC40LDAgOCwzLjggOCw4LjYgMCw0LjggLTMuNiw4LjYgLTgsOC42IHoiIGNsYXNzPSJzdDMiLz4mI3hhOwk8cGF0aCBpZD0icGF0aDQzIiBkPSJtIDI0Ny41LDI0LjEgYyAtMC4xLDAgLTAuMiwwLjEgLTAuMiwwLjIgdiAyNi4xIGMgMCwwLjEgMC4xLDAuMiAwLjIsMC4yIGggNS43IGMgMC4xLDAgMC4yLC0wLjEgMC4yLC0wLjIgdiAtOS45IGMgMCwtNyAzLjIsLTEwLjUgOC41LC0xMC41IDAuNCwwIDAuNCwtMC4yIDAuNCwtMC40IGwgMC44LC01LjcgYyAwLC0wLjEgMCwtMC4yIC0wLjIsLTAuMiAtNS4zLDAgLTcuNiwyLjIgLTkuMiw1LjYgLTAuMSwwLjIgLTAuNCwwLjEgLTAuNCwtMC4xIHYgLTQuOCBjIDAsLTAuMSAtMC4xLC0wLjIgLTAuMiwtMC4yIGwgLTUuNiwtMC4xIiBjbGFzcz0ic3QzIi8+JiN4YTsJPHBhdGggaWQ9InBhdGg0NCIgZD0ibSAxMTMuOCwxNi44IDUuNywtMiBjIDAuMSwwIDAuMywwLjEgMC4zLDAuMiB2IDM1LjQgYyAwLDAuMSAtMC4xLDAuMiAtMC4yLDAuMiBoIC01LjcgYyAtMC4xLDAgLTAuMiwtMC4xIC0wLjIsLTAuMiBWIDE3IGMgMCwtMC4xIDAsLTAuMiAwLjEsLTAuMiIgY2xhc3M9InN0MyIvPiYjeGE7CTxwYXRoIGlkPSJwYXRoNDUiIGQ9Im0gMjQzLjksNDAuOSBjIDAsNi42IC01LjIsOS43IC0xMyw5LjcgSCAyMTUgYyAtMC4xLDAgLTAuMiwtMC4xIC0wLjIsLTAuMiBWIDE1LjYgYyAwLC0wLjEgMC4xLC0wLjIgMC4yLC0wLjIgaCAxNS40IGMgNC45LDAgMTEuNiwyIDExLjYsOSAwLDQgLTIsNi4zIC00LjYsNy44IC0wLjEsMC4xIC0wLjEsMC4zIDAsMC40IDMuOCwxLjEgNi41LDMuNiA2LjUsOC4zIHogbSAtOC4zLC0xNS40IGMgMCwtMi45IC0yLjIsLTQuNiAtNi4yLC00LjYgaCAtOC4yIGMgLTAuMSwwIC0wLjIsMC4xIC0wLjIsMC4yIFYgMzAgYyAwLDAuMSAwLjEsMC4yIDAuMiwwLjIgaCA3LjcgYyA0LjEsMC4xIDYuNywtMS41IDYuNywtNC43IHogbSAxLjksMTQuOCBjIDAsLTMuMSAtMi40LC00LjggLTcuMiwtNC44IGggLTguOSBjIC0wLjEsMCAtMC4yLDAuMSAtMC4yLDAuMiB2IDkuMiBjIDAsMC4xIDAuMSwwLjIgMC4yLDAuMiBoIDkuNCBjIDQuMSwwIDYuNywtMS42IDYuNywtNC44IHoiIGNsYXNzPSJzdDMiLz4mI3hhOwk8cGF0aCBpZD0icGF0aDQ2IiBkPSJNIDI5NSw0My40IFYgMjkuNSBjIDAsLTAuMSAtMC4xLC0wLjIgLTAuMiwtMC4yIGggLTMgYyAtMC4xLDAgLTAuMiwtMC4xIC0wLjIsLTAuMiB2IC00LjggYyAwLC0wLjEgMC4xLC0wLjIgMC4yLC0wLjIgaCAzIGMgMC4xLDAgMC4yLC0wLjEgMC4yLC0wLjIgViAxNyBjIDAsLTAuMSAwLjEsLTAuMiAwLjEsLTAuMiBsIDUuNywtMiBjIDAuMSwwIDAuMywwLjEgMC4zLDAuMiB2IDguOSBjIDAsMC4xIDAuMSwwLjIgMC4yLDAuMiBoIDYuNSBjIDAuMSwwIDAuMiwwLjEgMC4yLDAuMiB2IDQuOCBjIDAsMC4xIC0wLjEsMC4yIC0wLjIsMC4yIGggLTYuNSBjIC0wLjEsMCAtMC4yLDAuMSAtMC4yLDAuMiB2IDEzIGMgMCwyLjQgMS4yLDMuMyAzLjMsMy4zIDEuMywwIDIuMywtMC4zIDMuNCwtMC44IDAuMSwtMC4xIDAuMywwIDAuMywwLjIgdiA0LjQgYyAwLDAuMSAwLDAuMSAtMC4xLDAuMiAtMS41LDAuOCAtMywxLjQgLTUuMywxLjQgLTQuNSwwIC03LjcsLTIgLTcuNywtNy44IiBjbGFzcz0ic3QzIi8+JiN4YTsJPHBhdGggaWQ9InBhdGg0NyIgZD0ibSAzMTEuMSwxNi44IDUuNywtMiBjIDAuMSwwIDAuMywwLjEgMC4zLDAuMiB2IDEyLjcgYyAwLDAuMiAwLjIsMC4zIDAuNCwwLjEgMS43LC0yLjMgNC4xLC00LjIgNy45LC00LjIgNiwwIDkuNCw0IDkuNCwxMC4yIHYgMTYuNiBjIDAsMC4xIC0wLjEsMC4yIC0wLjIsMC4yIGggLTUuNyBjIC0wLjEsMCAtMC4yLC0wLjEgLTAuMiwtMC4yIFYgMzUuNiBjIDAsLTQuMSAtMi4xLC02LjUgLTUuNywtNi41IC0zLjUsMCAtNiwyLjUgLTYsNi42IHYgMTQuNyBjIDAsMC4xIC0wLjEsMC4yIC0wLjIsMC4yIGggLTUuNiBjIC0wLjEsMCAtMC4yLC0wLjEgLTAuMiwtMC4yIFYgMTcgYyAwLC0wLjEgMCwtMC4yIDAuMSwtMC4yIiBjbGFzcz0ic3QzIi8+JiN4YTsJPHBhdGggaWQ9InBhdGg0OCIgZD0ibSAzNjYsMjQuMSBjIC0wLjEsMCAtMC4yLDAuMSAtMC4yLDAuMiB2IDI2LjEgYyAwLDAuMSAwLjEsMC4yIDAuMiwwLjIgaCA1LjcgYyAwLjEsMCAwLjIsLTAuMSAwLjIsLTAuMiB2IC05LjkgYyAwLC03IDMuMiwtMTAuNSA4LjUsLTEwLjUgMC40LDAgMC40LC0wLjIgMC40LC0wLjQgbCAwLjgsLTUuNyBjIDAsLTAuMSAwLC0wLjIgLTAuMiwtMC4yIC01LjMsMCAtNy42LDIuMiAtOS4yLDUuNiAtMC4xLDAuMiAtMC40LDAuMSAtMC40LC0wLjEgdiAtNC44IGMgMCwtMC4xIC0wLjEsLTAuMiAtMC4yLC0wLjIgTCAzNjYsMjQuMSIgY2xhc3M9InN0MyIvPiYjeGE7CTxwYXRoIGlkPSJwYXRoNDkiIGQ9Im0gMjc2LjMsMjMuNiBjIC03LjgsMCAtMTQuMSw2LjIgLTE0LjEsMTMuOCAwLDcuNiA2LjMsMTMuOCAxNC4xLDEzLjggNy44LDAgMTQuMSwtNi4yIDE0LjEsLTEzLjggMCwtNy42IC02LjMsLTEzLjggLTE0LjEsLTEzLjggeiBtIDAsMjIuNCBjIC00LjQsMCAtOCwtMy44IC04LC04LjYgMCwtNC43IDMuNiwtOC42IDgsLTguNiA0LjQsMCA4LDMuOCA4LDguNiAwLDQuOCAtMy42LDguNiAtOCw4LjYgeiIgY2xhc3M9InN0MyIvPiYjeGE7PC9nPiYjeGE7PG1ldGFkYXRhIGlkPSJtZXRhZGF0YTUwIj5DbG9zZSBCcm90aGVyc19GbGF0IExvZ288L21ldGFkYXRhPjwvc3ZnPg==;shadow=1;" vertex="1" parent="1">
          <mxGeometry x="517" y="379" width="403" height="83" as="geometry" />
        </mxCell>
      </root>
    </mxGraphModel>
  </diagram>
</mxfile>
